<svg width="420" height="96" viewBox="0 0 420 96" fill="none" xmlns="http://www.w3.org/2000/svg" role="img" aria-labelledby="title desc">
  <title id="title">Guia de Embalagens</title>
  <desc id="desc">Logo geométrico abstrato em verde escuro com detalhe laranja.</desc>
  <g transform="translate(4 8)">
    <path d="M38 4L72 23V58L38 78L4 58V23L38 4Z" fill="#0F2E24"/>
    <path d="M38 4L72 23L38 42L4 23L38 4Z" fill="#1E5A3A"/>
    <path d="M72 23V58L38 78V42L72 23Z" fill="#123C2F"/>
    <path d="M4 23V58L38 78V42L4 23Z" fill="#0B2B22"/>
    <path d="M16 24L38 36L60 24L66 28L43 42L66 56L56 62L38 50L20 62L10 56L33 42L10 28L16 24Z" fill="#FFFFFF"/>
    <path d="M38 29L49 35L38 41L27 35L38 29Z" fill="#FF7A00"/>
  </g>
  <g transform="translate(98 18)">
    <text x="0" y="27" font-family="Inter, Arial, sans-serif" font-size="31" font-weight="760" fill="#0F2E24">Guia <tspan font-weight="430">de</tspan></text>
    <text x="0" y="64" font-family="Inter, Arial, sans-serif" font-size="40" font-weight="800" fill="#0F2E24">Embalagens</text>
    <rect x="2" y="72" width="42" height="4" rx="2" fill="#FF7A00"/>
  </g>
</svg>
